<?xml version="1.0" encoding="utf-8"?>
<!-- Generator: Adobe Illustrator 26.0.3, SVG Export Plug-In . SVG Version: 6.00 Build 0)  -->
<svg version="1.1" id="Camada_1" xmlns="http://www.w3.org/2000/svg" xmlns:xlink="http://www.w3.org/1999/xlink" x="0px" y="0px"
	 viewBox="0 0 500 500" style="enable-background:new 0 0 500 500;" xml:space="preserve">
<style type="text/css">
	.st0{fill:#9A171C;}
</style>
<path class="st0" d="M245.51,456.52c-22.37-41.13-58.2-68.76-92.15-98.18c-32.34-28.02-65.05-55.58-96.83-84.24
	c-19.35-17.47-35.85-37.68-46.31-62.02C-15.26,152.56,8.74,91.15,68.51,62.7c57.67-27.46,124.13-11.76,166.06,39.39
	c5.61,6.83,10.64,14.13,16.04,21.32c6.22-9.57,11.78-19.42,18.55-28.37c32.69-43.23,94.78-60.42,146.28-43.9
	c78.78,25.28,106.91,116.06,65.6,183.7c-23.35,38.26-55.27,68.46-89.65,96.21c-31.83,25.68-64.53,50.24-96.73,75.46
	C276.2,420.96,258.27,436.02,245.51,456.52z M235.31,396.64c-1.72-3.9-3.35-7.86-5.21-11.69c-13.36-27.41-33.85-49.52-53.03-72.75
	c-14.85-17.97-28.4-37.24-40.7-57.06c-10.71-17.26-17.16-36.61-18.95-57.23c-2.72-31.16,23.14-55.17,54.01-50.01
	c15.2,2.53,27.89,10.03,39.88,19.03c18.58,13.93,32.76,31.63,43.95,53.29c9.52-36.75,27.01-67.67,51.68-94.37
	c23.33-25.27,50.61-43.72,86.86-41.89c12.64,0.64,25.12,4.61,37.76,7.08c-24.7-21.25-52.45-32.11-85.51-23.25
	c-31.59,8.47-54.41,29.17-72.89,54.99c-7.98,11.14-14.39,23.41-20.88,34.14c-15.43-17.1-30.08-35.5-46.96-51.52
	c-27.61-26.2-59.64-40.94-99.43-33.32c-38.27,7.32-66.47,31.75-74.29,67.18c-6.24,28.3,0.12,54.66,13.76,79.6
	c15.25,27.89,38.44,48.52,63.09,67.7C152.57,320.9,201.21,350.09,235.31,396.64z"/>
</svg>
